<?xml version="1.0" encoding="UTF-8" standalone="no"?>
<svg
   width="229"
   height="246"
   viewBox="0 0 229 246"
   fill="none"
   version="1.1"
   id="svg1"
   sodipodi:docname="flamingo-icon-white.svg"
   inkscape:version="1.3.1 (9b9bdc1480, 2023-11-25, custom)"
   xmlns:inkscape="http://www.inkscape.org/namespaces/inkscape"
   xmlns:sodipodi="http://sodipodi.sourceforge.net/DTD/sodipodi-0.dtd"
   xmlns="http://www.w3.org/2000/svg"
   xmlns:svg="http://www.w3.org/2000/svg">
  <defs
     id="defs1" />
  <sodipodi:namedview
     id="namedview1"
     pagecolor="#000000"
     bordercolor="#666666"
     borderopacity="1.0"
     inkscape:showpageshadow="2"
     inkscape:pageopacity="0.0"
     inkscape:pagecheckerboard="true"
     inkscape:deskcolor="#d1d1d1"
     inkscape:zoom="3.3170732"
     inkscape:cx="114.40809"
     inkscape:cy="123"
     inkscape:window-width="1866"
     inkscape:window-height="1016"
     inkscape:window-x="54"
     inkscape:window-y="27"
     inkscape:window-maximized="1"
     inkscape:current-layer="svg1" />
  <path
     fill-rule="evenodd"
     clip-rule="evenodd"
     d="M114.567 0.800537L0.691406 47.5418L5.51503 82.7878L114.724 35.1564L191.474 68.5351L181.917 152.838L148.015 177.55L145.641 220.899L211.403 169.805L229 47.5494L114.567 0.800537ZM152.879 139.242L155.15 112.594L140.708 107.946L127.958 117.526L132.263 135.446L123.688 162.271L152.879 139.242ZM161.135 81.3891L113.622 59.8386L64.5838 84.3816L67.6946 114.602L73.6086 171.216L47.3933 152.019L40.7667 94.5879L9.36914 109.103L11.6216 124.511L26.8173 116.964L27.799 124.403L12.699 131.88L14.2636 142.583L29.3128 134.515L30.2945 141.955L15.3609 150.089L17.0154 161.406L31.7966 153.134L32.7784 160.574L18.1269 169.009L18.2775 170.039L114.521 245.088V201.679L98.4945 147.271L98.8257 107.884L109.471 116.826L121.642 113.727L139.809 99.1428L156.617 104.146L161.135 81.3891ZM134.416 92.6611C133.687 92.8105 132.935 92.8132 132.205 92.6691C131.475 92.525 130.781 92.2371 130.164 91.822C129.546 91.407 129.017 90.8732 128.608 90.2516C128.199 89.6301 127.918 88.9333 127.78 88.202C127.458 86.7223 127.73 85.1751 128.537 83.894C129.345 82.6129 130.623 81.7006 132.098 81.3536C132.827 81.2026 133.579 81.1987 134.309 81.342C135.04 81.4854 135.735 81.7732 136.353 82.1885C136.971 82.6038 137.499 83.1383 137.908 83.7606C138.317 84.383 138.597 85.0806 138.733 85.8127C139.056 87.2924 138.784 88.8396 137.976 90.1207C137.169 91.4018 135.89 92.3142 134.416 92.6611Z"
     fill="#E72064"
     id="path1"
     style="fill:#ffffff;fill-opacity:1" />
</svg>
