<?xml version="1.0" encoding="UTF-8" standalone="no"?>
<svg
   width="300"
   height="73"
   viewBox="0 0 300 73"
   fill="none"
   version="1.1"
   id="svg1"
   sodipodi:docname="logo-flamingo.svg"
   inkscape:version="1.3.1 (9b9bdc1480, 2023-11-25, custom)"
   xmlns:inkscape="http://www.inkscape.org/namespaces/inkscape"
   xmlns:sodipodi="http://sodipodi.sourceforge.net/DTD/sodipodi-0.dtd"
   xmlns="http://www.w3.org/2000/svg"
   xmlns:svg="http://www.w3.org/2000/svg">
  <defs
     id="defs1" />
  <sodipodi:namedview
     id="namedview1"
     pagecolor="#ffffff"
     bordercolor="#666666"
     borderopacity="1.0"
     inkscape:showpageshadow="2"
     inkscape:pageopacity="0.0"
     inkscape:pagecheckerboard="true"
     inkscape:deskcolor="#d1d1d1"
     showgrid="false"
     inkscape:zoom="4.3233333"
     inkscape:cx="150"
     inkscape:cy="36.545875"
     inkscape:window-width="1866"
     inkscape:window-height="1016"
     inkscape:window-x="54"
     inkscape:window-y="27"
     inkscape:window-maximized="1"
     inkscape:current-layer="svg1" />
  <path
     fill-rule="evenodd"
     clip-rule="evenodd"
     d="M0 13.9677L33.9939 0L68.1545 13.9699L62.9013 50.5034L43.2701 65.7718L43.9789 52.8177L54.0994 45.4331L56.9522 20.2411L34.041 10.2665L1.43994 24.5002L0 13.9677ZM201.684 14.0992C201.684 16.4567 203.043 17.285 205.931 17.285C208.871 17.285 210.177 16.2231 210.177 14.0992C210.177 11.9754 208.776 10.9135 205.931 10.9135C203.086 10.9135 201.684 11.9754 201.684 14.0992ZM202.077 20.6194V49.7158H209.742V20.2796L202.077 20.6194ZM113.656 49.7158V12.0604L121.225 11.7206V49.7158H113.656ZM93.1244 20.8105V28.6369H106.331L106.235 35.603H93.1244V49.7158H85.0349V13.4621H108.836L108.985 20.8105H93.1244ZM143.625 46.8593L143.774 46.9124L144.347 49.7158H150.09V31.589C150.09 23.5609 147.096 19.8441 138.476 19.8441C135.036 19.8004 131.622 20.458 128.444 21.7768L129.07 27.766C131.606 26.6587 134.351 26.1152 137.117 26.1732C141.12 26.1732 142.67 27.5324 142.67 30.4739V32.173C140.858 31.6134 138.971 31.3341 137.075 31.3447C130.419 31.3447 126.661 35.0721 126.661 40.4772C126.661 47.008 130.185 50.1937 135.727 50.1937C137.208 50.2554 138.684 49.9884 140.049 49.4119C141.415 48.8354 142.636 47.9636 143.625 46.8593ZM138.561 36.5162C139.971 36.4809 141.376 36.693 142.712 37.1428V40.817C142.712 42.7072 140.292 44.247 137.839 44.247C135.387 44.247 133.699 43.2381 133.699 40.3816C133.699 37.8224 135.238 36.5162 138.561 36.5162ZM188.053 49.7158V31.0049C188.053 27.9678 186.418 26.513 183.669 26.513C183.098 26.4627 182.524 26.538 181.986 26.7337C181.448 26.9294 180.959 27.2406 180.554 27.6456C180.15 28.0505 179.838 28.5392 179.643 29.0774C179.447 29.6156 179.372 30.1902 179.422 30.7607V49.7158H171.991V30.7607C171.991 27.7661 170.345 26.513 167.745 26.513C166.889 26.5021 166.044 26.6982 165.28 27.0847C164.517 27.4711 163.858 28.0364 163.36 28.7324V49.7158H155.844V20.6194L161.237 20.2265L162.447 22.9874C164.44 21.0469 167.097 19.9382 169.878 19.8867C173.541 19.8867 176.046 21.1503 177.586 23.8051C178.526 22.5299 179.765 21.5056 181.194 20.8222C182.623 20.1389 184.199 19.8176 185.781 19.8867C191.567 19.8867 195.612 23.5608 195.612 30.8668V49.7158H188.053ZM233.734 49.7158V31.058C233.734 27.8723 232.099 26.513 229.021 26.513C228.087 26.4896 227.16 26.677 226.309 27.0612C225.459 27.4455 224.705 28.0167 224.105 28.7324V49.7158H216.578V20.5663L221.982 20.2265L223.044 22.7432C225.286 20.8328 228.146 19.8025 231.091 19.8442C237.259 19.8442 241.165 23.7627 241.165 31.058V49.7158H233.734ZM253.297 38.1851C253.484 37.9382 253.734 37.7468 254.022 37.6312C255.212 37.8184 256.416 37.9107 257.621 37.9073C265.519 37.9073 268.704 34.626 268.704 28.966C268.724 27.9202 268.58 26.8776 268.279 25.8759L271.358 23.4547L269.819 19.876L264.85 21.4796C262.604 20.3306 260.099 19.7785 257.578 19.876C249.478 19.876 246.399 23.6565 246.399 28.966C246.312 30.2925 246.558 31.6199 247.114 32.8272C247.67 34.0346 248.519 35.0836 249.584 35.8791C248.574 36.2836 247.703 36.9743 247.079 37.8664C246.454 38.7586 246.104 39.8135 246.07 40.9019C246.06 41.7458 246.256 42.5793 246.643 43.3292C247.03 44.0792 247.595 44.7225 248.289 45.2027C247.59 45.7827 247.025 46.5074 246.633 47.3268C246.241 48.1463 246.031 49.0411 246.017 49.9495C246.017 54.3883 249.489 57.6802 257.875 57.6802C267.366 57.6802 271.273 54.0485 271.273 48.2079C271.273 43.716 268.672 41.1568 261.825 40.7745L254.892 40.3816C253.587 40.286 252.96 39.7551 252.96 39.033C252.994 38.725 253.11 38.432 253.297 38.1851ZM252.797 47.6778C253.005 47.2713 253.291 46.9101 253.64 46.6151L260.54 47.1036C263.81 47.3478 264.585 47.9743 264.585 49.3229C264.585 50.9689 263.237 52.0309 257.737 52.0309C253.979 52.0309 252.429 51.022 252.429 48.9831C252.464 48.5279 252.59 48.0843 252.797 47.6778ZM257.546 32.7464C255.328 32.7464 253.831 32.0244 253.831 29.1678C253.831 26.6086 254.945 25.5467 257.737 25.5467C260.529 25.5467 261.591 26.4706 261.591 29.1253C261.591 31.7801 260.678 32.7464 257.546 32.7464ZM286.645 50.3955C277.398 50.3955 273.247 45.9461 273.247 35.1677C273.247 24.3892 277.398 19.8867 286.645 19.8867C295.892 19.8867 300 24.4317 300 35.1677C300 45.9036 295.945 50.3955 286.645 50.3955ZM286.645 44.247C290.743 44.247 292.24 42.3143 292.24 35.1677C292.24 28.021 290.743 26.0777 286.645 26.0777C282.547 26.0777 281.008 28.0103 281.008 35.1677C281.008 42.325 282.547 44.247 286.645 44.247ZM45.4309 41.3704L46.1088 33.4072L41.7976 32.0181L37.9914 34.8811L39.2766 40.2359L36.7167 48.2522L45.4309 41.3704ZM47.8955 24.0822L33.7121 17.6423L19.0731 24.9764L20.0018 34.0071L21.7672 50.9251L13.9414 45.1883L11.9632 28.0264L2.5905 32.364L3.26289 36.9682L7.79907 34.7128L8.09212 36.9361L3.5845 39.1704L4.05158 42.3687L8.54402 39.9577L8.83708 42.1809L4.37916 44.6117L4.87303 47.9935L9.28552 45.5215L9.5786 47.7448L5.20484 50.2655L5.24981 50.5735L33.9804 73V60.0283L29.1961 43.7695L29.295 31.9995L32.4728 34.6716L36.106 33.7456L41.5294 29.3875L46.5468 30.8826L47.8955 24.0822ZM39.9193 27.4506C39.7017 27.4952 39.4774 27.496 39.2595 27.453C39.0415 27.4099 38.8343 27.3239 38.65 27.1999C38.4656 27.0758 38.3077 26.9163 38.1856 26.7306C38.0634 26.5449 37.9795 26.3366 37.9385 26.1181C37.8422 25.6759 37.9233 25.2136 38.1644 24.8307C38.4055 24.4479 38.7872 24.1753 39.2273 24.0716C39.4449 24.0265 39.6694 24.0253 39.8875 24.0681C40.1056 24.111 40.313 24.197 40.4975 24.3211C40.682 24.4452 40.8398 24.6049 40.9619 24.7909C41.0839 24.9769 41.1676 25.1853 41.2081 25.4041C41.3044 25.8463 41.2233 26.3086 40.9822 26.6915C40.7411 27.0743 40.3594 27.3469 39.9193 27.4506Z"
     fill="#E72064"
     id="path1"
     style="fill:#ffffff;fill-opacity:1" />
</svg>
